<?xml version="1.0" encoding="utf-8"?>
<!-- Generator: Adobe Illustrator 17.0.0, SVG Export Plug-In . SVG Version: 6.00 Build 0)  -->
<!DOCTYPE svg PUBLIC "-//W3C//DTD SVG 1.0//EN" "http://www.w3.org/TR/2001/REC-SVG-20010904/DTD/svg10.dtd">
<svg version="1.0" id="Calque_1" xmlns="http://www.w3.org/2000/svg" xmlns:xlink="http://www.w3.org/1999/xlink" x="0px" y="0px"
	 width="35px" height="35px" viewBox="0 0 35 35" enable-background="new 0 0 35 35" xml:space="preserve">
<path fill="#010202" d="M28.686,10.561c-0.823,0.365-1.708,0.612-2.636,0.723c0.948-0.568,1.676-1.468,2.018-2.539
	c-0.887,0.526-1.869,0.908-2.915,1.114c-0.837-0.892-2.03-1.45-3.35-1.45c-2.535,0-4.59,2.055-4.59,4.59
	c0,0.36,0.041,0.71,0.119,1.046c-3.815-0.191-7.197-2.019-9.461-4.796C7.476,9.927,7.25,10.716,7.25,11.557
	c0,1.592,0.81,2.997,2.042,3.82c-0.752-0.024-1.46-0.23-2.079-0.574c0,0.019,0,0.038,0,0.058c0,2.224,1.582,4.079,3.682,4.501
	c-0.385,0.105-0.791,0.161-1.209,0.161c-0.296,0-0.583-0.029-0.864-0.082c0.584,1.824,2.279,3.151,4.288,3.188
	c-1.571,1.231-3.55,1.965-5.7,1.965c-0.37,0-0.736-0.022-1.095-0.064c2.031,1.302,4.444,2.062,7.036,2.062
	c8.443,0,13.059-6.994,13.059-13.06c0-0.199-0.004-0.397-0.013-0.594C27.293,12.29,28.071,11.482,28.686,10.561z"/>
</svg>
